# xmcd
#
# Track frame offsets: 
#        150
#        17470
#        32961
#        54902
#        68114
#        87045
#        102827
#        115097
#        131816
#        153319
#
# Disc length: 2265 seconds
#
# Revision: 2
# Processed by: cddbd v1.5.2PL0 Copyright (c) Steve Scherf et al.
# Submitted via: ExactAudioCopy v0.99pb3
#
DISCID=7508d70a
DTITLE=Chicago - I'm A Man [CD2) (comp) (2002)
DYEAR=2002
DGENRE=Rock
TTITLE0=Hollywood
TTITLE1=In Terms Of Two
TTITLE2=What's The World Coming To
TTITLE3=Darlin' Dear
TTITLE4=Feelin' Strong Every Day
TTITLE5=Jenny
TTITLE6=Critic's Choice
TTITLE7=Just You And Me
TTITLE8=Rediscovery
TTITLE9=Something In This City Changes
EXTD=
EXTT0=
EXTT1=
EXTT2=
EXTT3=
EXTT4=
EXTT5=
EXTT6=
EXTT7=
EXTT8=
EXTT9=
PLAYORDER=
